@startuml
[*] --> splash
splash --> privacy_policy
splash --> login
splash --> connect
splash --> revoked

revoked --> login
privacy_policy --> login

login --> welcome
login --> too_many_devices
login --> settings
login --> connect

too_many_devices --> login

welcome --> connect

connect --> revoked
connect --> settings
connect --> account
connect --> switch_location

switch_location --> search
switch_location --> filter
switch_location --> edit_custom_lists

settings --> vpn_settings
settings --> api_access
settings --> split_tunneling
settings --> report_problem
settings --> daita
settings --> multihop
settings --> app_info

report_problem --> view_logs

@enduml
